<svg version="1.2" xmlns="http://www.w3.org/2000/svg" viewBox="0 0 500 500" width="500" height="500">
	<title>example-0-image-svg</title>
	<style>
		.s0 { fill: #ffffff } 
		.s1 { fill: #ff4757 } 
		.s2 { fill: none;stroke: #ffffff;stroke-miterlimit:10 } 
	</style>
	<g>
		<path class="s0" d="m250 302c-28.8 0-52-23.2-52-52 0-28.8 23.2-52 52-52 28.8 0 52 23.2 52 52 0 28.8-23.2 52-52 52z"/>
		<path fill-rule="evenodd" class="s1" d="m206.9 221c9.3-13.9 25.2-23 43.1-23 17 0 32 8.1 41.5 20.7q2.5 4.7 4.1 9.7c2.5 8.3 3.3 17.4 1.3 26-1.9 8.2-6.2 15.7-12.2 21.5-6.1 5.9-13.8 9.9-22.1 11.4-8.6 1.6-17.5 0.6-25.2-3.7-7.3-4.1-13-10.8-15.8-18.7-2.9-8.2-2.8-17.5 1.3-25.2 4-7.4 11.3-12.7 19.6-14.2 8.5-1.5 17.3 1.3 22.7 8.4 5.2 6.8 6.4 16.7 1.3 23.9-4.9 6.9-15.1 10-22.4 5.1-7.2-4.8-9.1-16.2-1.4-21.4 3.5-2.4 8.5-2.8 12-0.1 3.4 2.6 4.9 7.7 2.3 11.4-2.4 3.6-8.1 4.6-10.8 0.8-1.3-1.7-1.5-4.1-0.4-5.9 1.1-1.8 3.4-2.8 5.4-1.9 1.9 0.8 3.1 3.4 1.8 5.3-0.2 0.2 0.1 0.4 0.5 0.6 0.8-1.5 0.6-3.8-0.7-5.1-2.5-2.5-6.5-1.3-8.1 1.6-1.6 3-0.3 6.6 2.5 8.5 2.8 1.8 6.4 1.4 9-0.6 5.7-4.4 3.9-12.8-1.7-16.2-5.9-3.6-13.2-1-16.9 4.4-3.9 5.6-2.8 12.9 1.3 18.1 4 5 10.6 7.5 17 6.4 6.4-1.1 12.1-5.5 15.2-11.2 3.1-5.8 3.4-12.6 1.1-18.8-2.3-6-6.8-11.1-12.4-14.3-5.6-3.2-12.2-4.3-18.5-3.2-6.4 1.2-12.6 4.5-17.2 9.1-4.5 4.4-7.9 10.1-9.5 16.2-1.7 6.3-1.5 13 0.5 19.2 1.9 6.3 5.4 12.1 10 16.8 4.4 4.6 9.8 8.2 15.7 10.6 5.9 2.3 12.4 3.3 18.8 2.9 6.7-0.4 13.1-2.5 19.1-5.6 5-2.6 9.4-5.9 13.3-9.8-9.5 12.9-24.8 21.3-42 21.3-16.1 0-30.4-7.3-40-18.8-4.4-7.4-7-15.8-7.5-24.4-0.5-8.7 1.3-17.4 5.6-25 4.1-7.2 10.3-13.2 17.7-17.1 7.6-4 16.7-5.9 25.2-4.6 8.4 1.2 16.2 5.5 21.7 12 5.5 6.5 8.5 15.1 8.3 23.7-0.3 8.5-4.6 16.6-11.6 21.5-6.9 5-16.4 7-24.5 3.8-8-3.1-13.6-10.7-14.2-19.3-0.6-8.7 5-16.9 13.6-19 8.7-2.1 17.8 3.4 18.5 12.6 0.3 4.4-1.6 8.5-5.3 10.9-3.6 2.3-8.5 2.4-11.9-0.3-3.3-2.7-4.5-7.9-1.9-11.4 2.6-3.4 8.3-4.2 10.8-0.3 1.2 1.8 1.3 4.1 0.1 5.8q0.1 0.1-0.1 0.1c-1.3 1.7-3.7 2.5-5.6 1.4-1.8-1.1-2.6-3.8-1-5.4 1.5-1.5 4.8-0.8 4.5 1.7-0.3 2.7-4.4 1.8-3.3-0.3q0.2-0.3 0.5-0.4c0.1-0.2 0.3-0.2 0.5-0.2q0.4 0 0.6 0.1c-0.8-1.2-3 0.2-2.2 1.9 0.9 1.7 3.2 1 3.8-0.5 0.6-1.6-0.7-3.3-2.2-3.6-3.9-0.8-5.1 4.4-2.7 6.8 2.6 2.5 6.7 1 8.1-2 1.5-3.1-0.2-6.7-2.9-8.4-6.4-3.8-13.5 3.3-12.1 10 1.4 6.8 9 10.5 15.3 8 6.3-2.5 10-9 9-15.7-1.1-6.5-6.4-12-12.6-13.7-6.5-1.8-13.5 0.4-18.4 4.9-4.9 4.4-7.5 10.8-7.3 17.3 0.3 6.6 3.6 13.1 8.4 17.6 4.7 4.4 10.9 7.2 17.3 7.6 6.7 0.5 13.4-1.7 19-5.4 5.4-3.6 9.8-8.7 12.5-14.6 2.7-5.9 3.8-12.6 2.8-19.1-0.9-6.7-3.8-13.1-7.7-18.5-3.9-5.2-8.8-9.5-14.5-12.6-5.7-3.1-12.1-4.9-18.5-5.2-6.8-0.3-13.5 1-19.7 3.6-6.1 2.5-11.7 6.2-16.6 10.8q-1.4 1.3-2.6 2.7zm41.3 29.3c-0.2-1.8 1.4-2.4 2.5-2-1.1-0.6-2.6 0.1-3 1.4-0.5 1.6 0.7 3.2 2.3 3.5 1.4 0.3 2.4-0.2 3.1-1-0.9 0-1.9 0-1.9 0-1.3 0.3-2.8-0.3-3-1.9zm6.4 1.8c-0.2-0.1-0.7-0.2-1.1-0.4q-0.2 0.3-0.4 0.5c0.7 0 1.4 0 1.4 0q0 0 0.1-0.1zm-5.1-2.8c-0.4 0.3-0.6 0.8-0.4 1.2 0.5 1.6 3 0.5 2.5-1.1q0 0.3-0.1 0.6c-0.2 0.5-0.7 0.7-1.1 0.8-0.3 0-0.5 0-0.8-0.2-0.3-0.2-0.3-0.5-0.2-0.7q0-0.1 0-0.1 0-0.3 0.1-0.5zm-0.1 0.6c0 0.6 0.5 0.9 1 0.9q0.1-0.1 0.2-0.1-0.3-0.1-0.5-0.2c0.3-0.1 0.5-0.3 0.5-0.5q-0.1 0.1-0.3 0.1l0.1-0.3q-0.1-0.1-0.1-0.2l-0.5 0.4c0.1 0.2 0.2 0.3 0.3 0.5-0.2 0-0.4 0-0.5-0.3l0.2-0.2c-0.1-0.2 0-0.4 0.5-0.4-0.3-0.3-0.7 0-0.9 0.3z"/>
		<g>
			<path class="s1" d="m250 253.2c-1.8 0-3.2-1.4-3.2-3.2 0-1.8 1.4-3.2 3.2-3.2 1.8 0 3.2 1.4 3.2 3.2 0 1.8-1.4 3.2-3.2 3.2z"/>
		</g>
		<path class="s2" d="m250 302c-28.8 0-52-23.2-52-52 0-28.8 23.2-52 52-52 28.8 0 52 23.2 52 52 0 28.8-23.2 52-52 52z"/>
	</g>
</svg>